G04 Layer: BottomLayer*
G04 EasyEDA v6.4.23, 2021-09-04T13:09:10+03:00*
G04 0f8cf0c998764ff9a69fd8a390fcb069,e35e2ce9ff7a437f96666ecb9555ba6e,10*
G04 Gerber Generator version 0.2*
G04 Scale: 100 percent, Rotated: No, Reflected: No *
G04 Dimensions in millimeters *
G04 leading zeros omitted , absolute positions ,4 integer and 5 decimal *
%FSLAX45Y45*%
%MOMM*%

%ADD10C,0.2540*%
%ADD11C,0.6100*%
%ADD15R,1.5748X1.5748*%
%ADD16C,1.5748*%
%ADD17C,1.1938*%
%ADD18C,1.7780*%
%ADD19R,1.5748X1.7000*%
%ADD20C,1.7000*%

%LPD*%
D10*
X3467102Y2705107D02*
G01*
X4368802Y3606807D01*
X4686302Y3606807D01*
X1790702Y1638307D02*
G01*
X1903935Y1525074D01*
X3135835Y1525074D01*
X3160524Y1549763D01*
X3160524Y3624384D01*
X3236546Y3700406D01*
X927102Y3848107D02*
G01*
X1908558Y3848107D01*
X2368120Y3388545D01*
X3556002Y1651007D02*
G01*
X3556002Y1384993D01*
X927102Y3594107D02*
G01*
X845619Y3512624D01*
X845619Y2494490D01*
X952502Y2387607D01*
X952502Y2387607D02*
G01*
X1295402Y2387607D01*
X2044702Y1638307D01*
X4579419Y2705107D02*
G01*
X3975102Y2705107D01*
X4660902Y2184407D02*
G01*
X4579419Y2265890D01*
X4579419Y2705107D01*
X4579419Y2705107D02*
G01*
X4579419Y3245924D01*
X4686302Y3352807D01*
X952502Y2641607D02*
G01*
X1950544Y2641607D01*
X2941144Y1651007D01*
X3048002Y1651007D02*
G01*
X2941144Y1651007D01*
G36*
X2969259Y1729739D02*
G01*
X3126740Y1729739D01*
X3126740Y1572260D01*
X2969259Y1572260D01*
G37*
D16*
G01*
X3302000Y1651000D03*
G01*
X3556000Y1651000D03*
G01*
X3810000Y1651000D03*
D15*
G01*
X4686300Y3606800D03*
D16*
G01*
X4686300Y3352800D03*
G01*
X4686300Y3098800D03*
G01*
X4686300Y2844800D03*
D17*
G01*
X4660900Y2184400D03*
G01*
X4914900Y2184400D03*
D18*
G01*
X3467100Y2705100D03*
G01*
X3975100Y2705100D03*
D19*
G01*
X927100Y3848100D03*
D20*
G01*
X927100Y3594100D03*
D19*
G01*
X952500Y2641600D03*
D20*
G01*
X952500Y2387600D03*
G36*
X1457960Y1717039D02*
G01*
X1615439Y1717039D01*
X1615439Y1559560D01*
X1457960Y1559560D01*
G37*
D16*
G01*
X1790700Y1638300D03*
G01*
X2044700Y1638300D03*
G01*
X2298700Y1638300D03*
D11*
G01*
X3556002Y1384993D03*
G01*
X2368120Y3388545D03*
G01*
X3236546Y3700406D03*
M02*
