M48
METRIC,LZ,000.000
;FILE_FORMAT=3:3
;TYPE=PLATED
;Layer: Drill PTH
;EasyEDA v6.4.23, 2021-09-04T13:09:10+03:00
;0f8cf0c998764ff9a69fd8a390fcb069,e35e2ce9ff7a437f96666ecb9555ba6e,10
;Gerber Generator version 0.2
;Holesize 1 = 0.306 mm
T01C0.306
;Holesize 2 = 0.712 mm
T02C0.712
;Holesize 3 = 0.889 mm
T03C0.889
;Holesize 4 = 1.101 mm
T04C1.101
%
G05
G90
T01
X035560Y013850
X023681Y033885
X032365Y037004
T02
X046609Y021844
X049149Y021844
X034671Y027051
X039751Y027051
T03
X030480Y016510
X033020Y016510
X035560Y016510
X038100Y016510
X046863Y036068
X046863Y033528
X046863Y030988
X046863Y028448
X015367Y016383
X017907Y016383
X020447Y016383
X022987Y016383
T04
X009271Y038481
X009271Y035941
X009525Y026416
X009525Y023876
M30
