G04 Layer: TopSilkLayer*
G04 EasyEDA v6.4.21, 2021-08-31T18:03:31+03:00*
G04 b95053f86dca452894c47d8f443744e6,e35e2ce9ff7a437f96666ecb9555ba6e,10*
G04 Gerber Generator version 0.2*
G04 Scale: 100 percent, Rotated: No, Reflected: No *
G04 Dimensions in millimeters *
G04 leading zeros omitted , absolute positions ,4 integer and 5 decimal *
%FSLAX45Y45*%
%MOMM*%

%ADD10C,0.2540*%
%ADD11C,0.2032*%
%ADD24C,0.2007*%
%ADD25C,0.2030*%
%ADD26C,0.1778*%
%ADD27C,0.3500*%
%ADD28C,0.1524*%

%LPD*%
D11*
X914400Y2634234D02*
G01*
X1080770Y2634234D01*
D27*
X3401313Y4738878D02*
G01*
X3327400Y4545076D01*
X3401313Y4738878D02*
G01*
X3475227Y4545076D01*
X3355086Y4609592D02*
G01*
X3447541Y4609592D01*
X3536188Y4738878D02*
G01*
X3545331Y4729734D01*
X3554729Y4738878D01*
X3545331Y4748276D01*
X3536188Y4738878D01*
X3545331Y4674362D02*
G01*
X3545331Y4545076D01*
X3615690Y4674362D02*
G01*
X3615690Y4545076D01*
X3615690Y4618989D02*
G01*
X3624834Y4646676D01*
X3643375Y4664963D01*
X3661663Y4674362D01*
X3689350Y4674362D01*
X3750309Y4738878D02*
G01*
X3750309Y4545076D01*
X3750309Y4738878D02*
G01*
X3833622Y4738878D01*
X3861308Y4729734D01*
X3870452Y4720589D01*
X3879850Y4702047D01*
X3879850Y4683505D01*
X3870452Y4664963D01*
X3861308Y4655820D01*
X3833622Y4646676D01*
X3750309Y4646676D02*
G01*
X3833622Y4646676D01*
X3861308Y4637278D01*
X3870452Y4628134D01*
X3879850Y4609592D01*
X3879850Y4581905D01*
X3870452Y4563363D01*
X3861308Y4554220D01*
X3833622Y4545076D01*
X3750309Y4545076D01*
X3986784Y4674362D02*
G01*
X3968495Y4664963D01*
X3949954Y4646676D01*
X3940809Y4618989D01*
X3940809Y4600447D01*
X3949954Y4572762D01*
X3968495Y4554220D01*
X3986784Y4545076D01*
X4014470Y4545076D01*
X4033011Y4554220D01*
X4051554Y4572762D01*
X4060697Y4600447D01*
X4060697Y4618989D01*
X4051554Y4646676D01*
X4033011Y4664963D01*
X4014470Y4674362D01*
X3986784Y4674362D01*
X4149343Y4738878D02*
G01*
X4149343Y4581905D01*
X4158741Y4554220D01*
X4177029Y4545076D01*
X4195572Y4545076D01*
X4121658Y4674362D02*
G01*
X4186427Y4674362D01*
X4408170Y4692650D02*
G01*
X4408170Y4702047D01*
X4417313Y4720589D01*
X4426458Y4729734D01*
X4445000Y4738878D01*
X4481829Y4738878D01*
X4500372Y4729734D01*
X4509770Y4720589D01*
X4518913Y4702047D01*
X4518913Y4683505D01*
X4509770Y4664963D01*
X4491227Y4637278D01*
X4398772Y4545076D01*
X4528058Y4545076D01*
X4598415Y4591050D02*
G01*
X4589018Y4581905D01*
X4598415Y4572762D01*
X4607559Y4581905D01*
X4598415Y4591050D01*
X4723891Y4738878D02*
G01*
X4696206Y4729734D01*
X4677663Y4702047D01*
X4668520Y4655820D01*
X4668520Y4628134D01*
X4677663Y4581905D01*
X4696206Y4554220D01*
X4723891Y4545076D01*
X4742434Y4545076D01*
X4770120Y4554220D01*
X4788661Y4581905D01*
X4797806Y4628134D01*
X4797806Y4655820D01*
X4788661Y4702047D01*
X4770120Y4729734D01*
X4742434Y4738878D01*
X4723891Y4738878D01*
D11*
X1728470Y2109978D02*
G01*
X1728470Y1916176D01*
X1663700Y2109978D02*
G01*
X1792986Y2109978D01*
X1384300Y2097278D02*
G01*
X1384300Y1903476D01*
X1384300Y2097278D02*
G01*
X1467357Y2097278D01*
X1495044Y2088134D01*
X1504442Y2078989D01*
X1513586Y2060447D01*
X1513586Y2041905D01*
X1504442Y2023363D01*
X1495044Y2014220D01*
X1467357Y2005076D01*
X1384300Y2005076D01*
X1449070Y2005076D02*
G01*
X1513586Y1903476D01*
X3499358Y2336292D02*
G01*
X3499358Y2170176D01*
X3416300Y2253234D02*
G01*
X3582670Y2253234D01*
X1955800Y2011934D02*
G01*
X2122170Y2011934D01*
X2369058Y2107692D02*
G01*
X2369058Y1941576D01*
X2286000Y2024634D02*
G01*
X2452370Y2024634D01*
X946657Y3657092D02*
G01*
X946657Y3490976D01*
X863600Y3574034D02*
G01*
X1029970Y3574034D01*
D28*
X4525518Y2548128D02*
G01*
X4520184Y2558542D01*
X4509770Y2568955D01*
X4499609Y2574036D01*
X4478781Y2574036D01*
X4468368Y2568955D01*
X4457954Y2558542D01*
X4452620Y2548128D01*
X4447540Y2532379D01*
X4447540Y2506471D01*
X4452620Y2490978D01*
X4457954Y2480563D01*
X4468368Y2470150D01*
X4478781Y2465070D01*
X4499609Y2465070D01*
X4509770Y2470150D01*
X4520184Y2480563D01*
X4525518Y2490978D01*
X4564888Y2548128D02*
G01*
X4564888Y2553207D01*
X4570222Y2563621D01*
X4575302Y2568955D01*
X4585715Y2574036D01*
X4606543Y2574036D01*
X4616958Y2568955D01*
X4622038Y2563621D01*
X4627372Y2553207D01*
X4627372Y2542794D01*
X4622038Y2532379D01*
X4611624Y2516886D01*
X4559808Y2465070D01*
X4632452Y2465070D01*
X4890515Y3148329D02*
G01*
X4807458Y3148329D01*
X4791709Y3153663D01*
X4786629Y3158744D01*
X4781550Y3169157D01*
X4781550Y3179571D01*
X4786629Y3189986D01*
X4791709Y3195320D01*
X4807458Y3200400D01*
X4817872Y3200400D01*
X4890515Y3103879D02*
G01*
X4890515Y3046729D01*
X4848859Y3077718D01*
X4848859Y3062223D01*
X4843779Y3051810D01*
X4838700Y3046729D01*
X4822952Y3041395D01*
X4812538Y3041395D01*
X4797043Y3046729D01*
X4786629Y3056889D01*
X4781550Y3072637D01*
X4781550Y3088131D01*
X4786629Y3103879D01*
X4791709Y3108960D01*
X4802124Y3114039D01*
X4839715Y3848100D02*
G01*
X4730750Y3848100D01*
X4839715Y3848100D02*
G01*
X4839715Y3801363D01*
X4834636Y3785870D01*
X4829302Y3780536D01*
X4818888Y3775455D01*
X4808474Y3775455D01*
X4798059Y3780536D01*
X4792979Y3785870D01*
X4787900Y3801363D01*
X4787900Y3848100D01*
X4787900Y3811778D02*
G01*
X4730750Y3775455D01*
X4818888Y3741165D02*
G01*
X4824222Y3730752D01*
X4839715Y3715004D01*
X4730750Y3715004D01*
X3339084Y3449320D02*
G01*
X3261106Y3449320D01*
X3245611Y3444239D01*
X3235197Y3433826D01*
X3230118Y3418078D01*
X3230118Y3407663D01*
X3235197Y3392170D01*
X3245611Y3381755D01*
X3261106Y3376676D01*
X3339084Y3376676D01*
X3318256Y3342386D02*
G01*
X3323590Y3331971D01*
X3339084Y3316223D01*
X3230118Y3316223D01*
X4220972Y2963418D02*
G01*
X4210558Y2958084D01*
X4200143Y2947670D01*
X4195063Y2937510D01*
X4195063Y2916681D01*
X4200143Y2906268D01*
X4210558Y2895854D01*
X4220972Y2890520D01*
X4236720Y2885439D01*
X4262627Y2885439D01*
X4278122Y2890520D01*
X4288536Y2895854D01*
X4298950Y2906268D01*
X4304029Y2916681D01*
X4304029Y2937510D01*
X4298950Y2947670D01*
X4288536Y2958084D01*
X4278122Y2963418D01*
X4215891Y2997707D02*
G01*
X4210558Y3008121D01*
X4195063Y3023615D01*
X4304029Y3023615D01*
X4344415Y3916679D02*
G01*
X4266438Y3916679D01*
X4250943Y3911600D01*
X4240529Y3901186D01*
X4235450Y3885437D01*
X4235450Y3875023D01*
X4240529Y3859529D01*
X4250943Y3849115D01*
X4266438Y3844036D01*
X4344415Y3844036D01*
X4318508Y3804412D02*
G01*
X4323588Y3804412D01*
X4334002Y3799331D01*
X4339336Y3793997D01*
X4344415Y3783584D01*
X4344415Y3763010D01*
X4339336Y3752595D01*
X4334002Y3747262D01*
X4323588Y3742181D01*
X4313174Y3742181D01*
X4302759Y3747262D01*
X4287265Y3757676D01*
X4235450Y3809745D01*
X4235450Y3736847D01*
X3722877Y3188207D02*
G01*
X3717543Y3198621D01*
X3707129Y3209036D01*
X3696970Y3214115D01*
X3676141Y3214115D01*
X3665727Y3209036D01*
X3655313Y3198621D01*
X3649979Y3188207D01*
X3644900Y3172460D01*
X3644900Y3146552D01*
X3649979Y3131057D01*
X3655313Y3120644D01*
X3665727Y3110229D01*
X3676141Y3105150D01*
X3696970Y3105150D01*
X3707129Y3110229D01*
X3717543Y3120644D01*
X3722877Y3131057D01*
X3819397Y3198621D02*
G01*
X3814318Y3209036D01*
X3798570Y3214115D01*
X3788409Y3214115D01*
X3772661Y3209036D01*
X3762247Y3193287D01*
X3757168Y3167379D01*
X3757168Y3141471D01*
X3762247Y3120644D01*
X3772661Y3110229D01*
X3788409Y3105150D01*
X3793490Y3105150D01*
X3808984Y3110229D01*
X3819397Y3120644D01*
X3824731Y3136137D01*
X3824731Y3141471D01*
X3819397Y3156965D01*
X3808984Y3167379D01*
X3793490Y3172460D01*
X3788409Y3172460D01*
X3772661Y3167379D01*
X3762247Y3156965D01*
X3757168Y3141471D01*
X2984500Y1982215D02*
G01*
X2984500Y1873250D01*
X2984500Y1982215D02*
G01*
X3052063Y1982215D01*
X2984500Y1930400D02*
G01*
X3026156Y1930400D01*
X3086354Y1982215D02*
G01*
X3086354Y1873250D01*
X3086354Y1873250D02*
G01*
X3148584Y1873250D01*
X3224529Y1982215D02*
G01*
X3182874Y1873250D01*
X3224529Y1982215D02*
G01*
X3266186Y1873250D01*
X3198622Y1909571D02*
G01*
X3250438Y1909571D01*
X3373120Y1966721D02*
G01*
X3362706Y1977136D01*
X3347211Y1982215D01*
X3326384Y1982215D01*
X3310890Y1977136D01*
X3300475Y1966721D01*
X3300475Y1956307D01*
X3305556Y1945894D01*
X3310890Y1940560D01*
X3321050Y1935479D01*
X3352291Y1925065D01*
X3362706Y1919986D01*
X3368040Y1914652D01*
X3373120Y1904237D01*
X3373120Y1888744D01*
X3362706Y1878329D01*
X3347211Y1873250D01*
X3326384Y1873250D01*
X3310890Y1878329D01*
X3300475Y1888744D01*
X3407409Y1982215D02*
G01*
X3407409Y1873250D01*
X3480054Y1982215D02*
G01*
X3480054Y1873250D01*
X3407409Y1930400D02*
G01*
X3480054Y1930400D01*
X4009643Y1941321D02*
G01*
X3999229Y1951736D01*
X3983736Y1956815D01*
X3962908Y1956815D01*
X3947413Y1951736D01*
X3937000Y1941321D01*
X3937000Y1930907D01*
X3942079Y1920494D01*
X3947413Y1915160D01*
X3957827Y1910079D01*
X3989070Y1899665D01*
X3999229Y1894586D01*
X4004563Y1889252D01*
X4009643Y1878837D01*
X4009643Y1863344D01*
X3999229Y1852929D01*
X3983736Y1847850D01*
X3962908Y1847850D01*
X3947413Y1852929D01*
X3937000Y1863344D01*
X4043934Y1956815D02*
G01*
X4043934Y1847850D01*
X4043934Y1847850D02*
G01*
X4106418Y1847850D01*
X4140708Y1956815D02*
G01*
X4140708Y1847850D01*
X4140708Y1956815D02*
G01*
X4208272Y1956815D01*
X4140708Y1905000D02*
G01*
X4182109Y1905000D01*
X4140708Y1847850D02*
G01*
X4208272Y1847850D01*
X4242561Y1956815D02*
G01*
X4242561Y1847850D01*
X4242561Y1956815D02*
G01*
X4310125Y1956815D01*
X4242561Y1905000D02*
G01*
X4283963Y1905000D01*
X4242561Y1847850D02*
G01*
X4310125Y1847850D01*
X4344415Y1956815D02*
G01*
X4344415Y1847850D01*
X4344415Y1956815D02*
G01*
X4391152Y1956815D01*
X4406645Y1951736D01*
X4411979Y1946402D01*
X4417059Y1935987D01*
X4417059Y1920494D01*
X4411979Y1910079D01*
X4406645Y1905000D01*
X4391152Y1899665D01*
X4344415Y1899665D01*
X1194815Y3516629D02*
G01*
X1111757Y3516629D01*
X1096010Y3521963D01*
X1090929Y3527044D01*
X1085850Y3537457D01*
X1085850Y3547871D01*
X1090929Y3558286D01*
X1096010Y3563620D01*
X1111757Y3568700D01*
X1122171Y3568700D01*
X1168907Y3477260D02*
G01*
X1173987Y3477260D01*
X1184402Y3472179D01*
X1189736Y3466845D01*
X1194815Y3456431D01*
X1194815Y3435604D01*
X1189736Y3425189D01*
X1184402Y3420110D01*
X1173987Y3415029D01*
X1163573Y3415029D01*
X1153160Y3420110D01*
X1137665Y3430523D01*
X1085850Y3482339D01*
X1085850Y3409695D01*
X1944370Y1906015D02*
G01*
X1944370Y1822957D01*
X1939036Y1807210D01*
X1933956Y1802129D01*
X1923542Y1797050D01*
X1913128Y1797050D01*
X1902713Y1802129D01*
X1897379Y1807210D01*
X1892300Y1822957D01*
X1892300Y1833371D01*
X1978659Y1885187D02*
G01*
X1988820Y1890521D01*
X2004568Y1906015D01*
X2004568Y1797050D01*
D24*
X4724145Y2400045D02*
G01*
X4216145Y2400045D01*
X4216145Y2146045D01*
X4724145Y2146045D01*
X4724145Y2400045D01*
D11*
X5245100Y3644900D02*
G01*
X5245100Y3835400D01*
X4991100Y3835400D01*
X4991100Y2311400D01*
X5245100Y2311400D01*
D25*
X5245100Y2311400D02*
G01*
X5245100Y3644900D01*
D10*
X4597400Y4102100D02*
G01*
X4597400Y4127500D01*
X4597400Y3594100D02*
G01*
X4597400Y3568700D01*
X4597400Y4102100D02*
G01*
X4673600Y4102100D01*
X4521200Y4102100D02*
G01*
X4597400Y4102100D01*
X4521200Y3594100D02*
G01*
X4521200Y4102100D01*
X4597400Y3594100D02*
G01*
X4521200Y3594100D01*
X4673600Y3594100D02*
G01*
X4597400Y3594100D01*
X4673600Y4102100D02*
G01*
X4673600Y3594100D01*
X1458556Y2426855D02*
G01*
X1458556Y2380444D01*
X3058553Y2380444D01*
X3058553Y2420444D01*
X3058553Y3970441D02*
G01*
X3058553Y4490440D01*
X1458556Y4490440D01*
X1458556Y3970441D01*
X3058655Y3826395D02*
G01*
X3058655Y3773309D01*
X3058655Y3625735D02*
G01*
X3058655Y3572649D01*
X3058655Y3425075D02*
G01*
X3058655Y3374529D01*
X3058655Y3226955D02*
G01*
X3058655Y3173869D01*
X3058655Y3026295D02*
G01*
X3058655Y2973209D01*
X3058655Y2825635D02*
G01*
X3058655Y2772549D01*
X3058655Y2624975D02*
G01*
X3058655Y2574429D01*
X1458455Y3826395D02*
G01*
X1458455Y3773309D01*
X1458455Y3625735D02*
G01*
X1458455Y3572649D01*
X1458455Y3425075D02*
G01*
X1458455Y3374529D01*
X1458455Y3226955D02*
G01*
X1458455Y3173869D01*
X1458455Y3026295D02*
G01*
X1458455Y2973209D01*
X1458455Y2825635D02*
G01*
X1458455Y2772549D01*
X1458455Y2624975D02*
G01*
X1458455Y2574429D01*
D24*
X4369054Y3162045D02*
G01*
X4369054Y2654045D01*
X4623054Y2654045D01*
X4623054Y3162045D01*
X4369054Y3162045D01*
D10*
X3480401Y4078902D02*
G01*
X3480401Y3718900D01*
X4190398Y4078902D02*
G01*
X4190398Y3718900D01*
X4190398Y4078902D02*
G01*
X4021945Y4078902D01*
X3648854Y4078902D02*
G01*
X3480401Y4078902D01*
X4190398Y3718900D02*
G01*
X4131939Y3718900D01*
X3998861Y3718900D02*
G01*
X3901940Y3718900D01*
X3768859Y3718900D02*
G01*
X3671938Y3718900D01*
X3538860Y3718900D02*
G01*
X3480401Y3718900D01*
D26*
X4127500Y2705100D02*
G01*
X4127500Y2451100D01*
X3314700Y2451100D01*
X3314700Y2959100D01*
X4127500Y2959100D01*
X4127500Y2705100D01*
D25*
X3276600Y1765300D02*
G01*
X2959100Y1765300D01*
D11*
X3276600Y1765300D02*
G01*
X3276600Y1511300D01*
X2768600Y1511300D01*
X2768600Y1765300D01*
X2959100Y1765300D01*
D25*
X4152900Y1765300D02*
G01*
X3835400Y1765300D01*
D11*
X4152900Y1765300D02*
G01*
X4152900Y1511300D01*
X3644900Y1511300D01*
X3644900Y1765300D01*
X3835400Y1765300D01*
D25*
X1092200Y2832100D02*
G01*
X1092200Y3149600D01*
D11*
X1092200Y2832100D02*
G01*
X838200Y2832100D01*
X838200Y3340100D01*
X1092200Y3340100D01*
X1092200Y3149600D01*
X2425700Y1765300D02*
G01*
X2425700Y1511300D01*
X1409700Y1511300D01*
X1409700Y1765300D01*
X1600200Y1765300D01*
D25*
X2425700Y1765300D02*
G01*
X1600200Y1765300D01*
M02*
