G04 Layer: TopLayer*
G04 EasyEDA v6.4.23, 2021-09-04T13:09:10+03:00*
G04 0f8cf0c998764ff9a69fd8a390fcb069,e35e2ce9ff7a437f96666ecb9555ba6e,10*
G04 Gerber Generator version 0.2*
G04 Scale: 100 percent, Rotated: No, Reflected: No *
G04 Dimensions in millimeters *
G04 leading zeros omitted , absolute positions ,4 integer and 5 decimal *
%FSLAX45Y45*%
%MOMM*%

%ADD10C,0.2540*%
%ADD11C,0.6100*%
%ADD12R,2.6000X1.2000*%
%ADD15R,1.5748X1.5748*%
%ADD16C,1.5748*%
%ADD17C,1.1938*%
%ADD18C,1.7780*%
%ADD19R,1.5748X1.7000*%
%ADD20C,1.7000*%

%LPD*%
D10*
X2298702Y1638307D02*
G01*
X1646049Y2290960D01*
X1646049Y2500409D01*
X1487934Y2500409D02*
G01*
X1646049Y2500409D01*
X3467102Y2705107D02*
G01*
X3374265Y2612270D01*
X1757911Y2612270D01*
X1646049Y2500409D01*
X4579444Y3606807D02*
G01*
X4459099Y3727152D01*
X3835402Y3727152D01*
X4686302Y3606807D02*
G01*
X4579444Y3606807D01*
X3835402Y3589027D02*
G01*
X3835402Y3727152D01*
X1488442Y3500407D02*
G01*
X1646582Y3500407D01*
X2134720Y3988544D01*
X3574011Y3988544D01*
X3835402Y3727152D01*
X1536702Y1638307D02*
G01*
X1536702Y1745165D01*
X3058645Y3900406D02*
G01*
X2797101Y3900406D01*
X1685241Y2788546D01*
X1341681Y2788546D01*
X1288925Y2735790D01*
X1288925Y1992942D01*
X1536702Y1745165D01*
X3058645Y3700406D02*
G01*
X3216760Y3700406D01*
X3216760Y3700406D02*
G01*
X3236546Y3700406D01*
X4686302Y3098807D02*
G01*
X3618359Y3098807D01*
X3216760Y3500407D01*
X3058645Y3500407D02*
G01*
X3216760Y3500407D01*
X4686302Y2844807D02*
G01*
X4520135Y3010974D01*
X2907946Y3010974D01*
X2900530Y3018391D01*
X2900530Y3300407D01*
X3058645Y3300407D02*
G01*
X2900530Y3300407D01*
X3058645Y3100407D02*
G01*
X3216760Y3100407D01*
X2368120Y3388545D02*
G01*
X3209343Y3388545D01*
X3216760Y3381128D01*
X3216760Y3100407D01*
X1330327Y2700408D02*
G01*
X1329819Y2699900D01*
X1329819Y2428781D01*
X1917702Y1840898D01*
X1917702Y1601579D01*
X2039089Y1480192D01*
X3639187Y1480192D01*
X3810002Y1651007D01*
X1488442Y2700408D02*
G01*
X1330327Y2700408D01*
X1330327Y2900408D02*
G01*
X1244196Y2814276D01*
X1244196Y1726775D01*
X1585978Y1384993D01*
X3556002Y1384993D01*
X1488442Y2900408D02*
G01*
X1330327Y2900408D01*
X3975102Y2705107D02*
G01*
X3770403Y2500409D01*
X3058645Y2500409D01*
X3605405Y3589027D02*
G01*
X3605405Y3450902D01*
X3605405Y3450902D02*
G01*
X3703500Y3352807D01*
X4686302Y3352807D01*
X3302002Y1651007D02*
G01*
X3180361Y1529367D01*
X2153643Y1529367D01*
X2044702Y1638307D01*
X3058645Y2700408D02*
G01*
X3216963Y2700408D01*
X3343709Y2827154D01*
X3853055Y2827154D01*
X3975102Y2705107D01*
X4660902Y2184407D02*
G01*
X3835402Y2184407D01*
X3302002Y1651007D01*
X4065399Y3589027D02*
G01*
X4065399Y3450902D01*
X3048002Y1651007D02*
G01*
X3154860Y1651007D01*
X4065399Y3450902D02*
G01*
X4141066Y3450902D01*
X4163316Y3473152D01*
X4718636Y3473152D01*
X4816756Y3375032D01*
X4816756Y2646027D01*
X4914902Y2184407D02*
G01*
X4914902Y2547881D01*
X4816756Y2646027D01*
X4816756Y2646027D02*
G01*
X4123133Y2646027D01*
X3154860Y1677753D01*
X3154860Y1651007D01*
D12*
G01*
X3058655Y2500414D03*
G01*
X3058655Y2700413D03*
G01*
X3058655Y2900413D03*
G01*
X3058655Y3100412D03*
G01*
X3058655Y3300412D03*
G01*
X3058655Y3500412D03*
G01*
X3058655Y3700411D03*
G01*
X3058655Y3900411D03*
G01*
X1488452Y3900411D03*
G01*
X1488452Y3700411D03*
G01*
X1488452Y3500412D03*
G01*
X1488452Y3300412D03*
G01*
X1488452Y3100412D03*
G01*
X1488452Y2900413D03*
G01*
X1488452Y2700413D03*
G01*
X1487944Y2500414D03*
G36*
X3660399Y4318779D02*
G01*
X4010400Y4318779D01*
X4010400Y4098780D01*
X3660399Y4098780D01*
G37*
G36*
X4010400Y3699019D02*
G01*
X4120400Y3699019D01*
X4120400Y3479020D01*
X4010400Y3479020D01*
G37*
G36*
X3780398Y3699019D02*
G01*
X3890401Y3699019D01*
X3890401Y3479020D01*
X3780398Y3479020D01*
G37*
G36*
X3550399Y3699019D02*
G01*
X3660399Y3699019D01*
X3660399Y3479020D01*
X3550399Y3479020D01*
G37*
G36*
X2969259Y1729739D02*
G01*
X3126740Y1729739D01*
X3126740Y1572260D01*
X2969259Y1572260D01*
G37*
D16*
G01*
X3302000Y1651000D03*
G01*
X3556000Y1651000D03*
G01*
X3810000Y1651000D03*
D15*
G01*
X4686300Y3606800D03*
D16*
G01*
X4686300Y3352800D03*
G01*
X4686300Y3098800D03*
G01*
X4686300Y2844800D03*
D17*
G01*
X4660900Y2184400D03*
G01*
X4914900Y2184400D03*
D18*
G01*
X3467100Y2705100D03*
G01*
X3975100Y2705100D03*
D19*
G01*
X927100Y3848100D03*
D20*
G01*
X927100Y3594100D03*
D19*
G01*
X952500Y2641600D03*
D20*
G01*
X952500Y2387600D03*
G36*
X1457960Y1717039D02*
G01*
X1615439Y1717039D01*
X1615439Y1559560D01*
X1457960Y1559560D01*
G37*
D16*
G01*
X1790700Y1638300D03*
G01*
X2044700Y1638300D03*
G01*
X2298700Y1638300D03*
D11*
G01*
X3556002Y1384993D03*
G01*
X2368120Y3388545D03*
G01*
X3236546Y3700406D03*
M02*
