G04 Layer: TopLayer*
G04 EasyEDA v6.4.21, 2021-08-31T18:03:31+03:00*
G04 b95053f86dca452894c47d8f443744e6,e35e2ce9ff7a437f96666ecb9555ba6e,10*
G04 Gerber Generator version 0.2*
G04 Scale: 100 percent, Rotated: No, Reflected: No *
G04 Dimensions in millimeters *
G04 leading zeros omitted , absolute positions ,4 integer and 5 decimal *
%FSLAX45Y45*%
%MOMM*%

%ADD10C,0.2540*%
%ADD11C,0.2032*%
%ADD12C,0.6100*%
%ADD13R,2.6000X1.2000*%
%ADD16C,1.1938*%
%ADD17C,1.5748*%
%ADD18R,1.5748X1.5748*%
%ADD19C,1.8796*%
%ADD20C,1.7780*%
%ADD22C,1.7000*%
%ADD23R,1.5748X1.7000*%

%LPD*%
G36*
X5386070Y3757929D02*
G01*
X5340350Y3745992D01*
X5340350Y3738372D01*
X5370068Y3741165D01*
X5370017Y3644849D01*
X5369560Y3618229D01*
X5338064Y3613658D01*
X5338064Y3606800D01*
X5420106Y3606800D01*
X5420106Y3613658D01*
X5388864Y3618229D01*
X5388356Y3653790D01*
X5388356Y3723640D01*
X5389118Y3755644D01*
G37*
G36*
X5375910Y3530092D02*
G01*
X5370423Y3529837D01*
X5365140Y3529177D01*
X5360009Y3528009D01*
X5355183Y3526383D01*
X5350611Y3524250D01*
X5346395Y3521710D01*
X5342585Y3518662D01*
X5339232Y3515207D01*
X5336387Y3511245D01*
X5334050Y3506825D01*
X5332323Y3501898D01*
X5331206Y3496564D01*
X5333187Y3493770D01*
X5335727Y3491636D01*
X5338724Y3490214D01*
X5342128Y3489706D01*
X5345988Y3490468D01*
X5349290Y3492855D01*
X5352034Y3497224D01*
X5354320Y3503676D01*
X5358638Y3519932D01*
X5365292Y3521100D01*
X5370576Y3521456D01*
X5376570Y3520897D01*
X5381955Y3519170D01*
X5386628Y3516426D01*
X5390591Y3512718D01*
X5393740Y3508146D01*
X5396077Y3502710D01*
X5397500Y3496564D01*
X5398008Y3489706D01*
X5397804Y3485286D01*
X5397144Y3480815D01*
X5396077Y3476396D01*
X5394553Y3471875D01*
X5392623Y3467252D01*
X5390184Y3462578D01*
X5387340Y3457701D01*
X5380228Y3447440D01*
X5371236Y3436264D01*
X5332222Y3391915D01*
X5332222Y3378200D01*
X5423662Y3378200D01*
X5423662Y3395472D01*
X5346446Y3395472D01*
X5372608Y3422396D01*
X5387543Y3438194D01*
X5399074Y3451301D01*
X5403697Y3457041D01*
X5407558Y3462375D01*
X5410708Y3467404D01*
X5413197Y3472179D01*
X5415026Y3476802D01*
X5416346Y3481374D01*
X5417058Y3485997D01*
X5417312Y3490722D01*
X5417058Y3496360D01*
X5416245Y3501644D01*
X5414873Y3506622D01*
X5412943Y3511194D01*
X5410454Y3515360D01*
X5407355Y3519068D01*
X5403697Y3522319D01*
X5399379Y3525012D01*
X5394502Y3527196D01*
X5388965Y3528771D01*
X5382768Y3529736D01*
G37*
G36*
X5389372Y3301492D02*
G01*
X5381904Y3301085D01*
X5374843Y3299764D01*
X5368340Y3297580D01*
X5362448Y3294481D01*
X5357317Y3290519D01*
X5353100Y3285642D01*
X5349849Y3279800D01*
X5347716Y3273044D01*
X5349544Y3269335D01*
X5351983Y3266897D01*
X5354878Y3265576D01*
X5358130Y3265170D01*
X5362752Y3265982D01*
X5366207Y3268472D01*
X5368798Y3272688D01*
X5370830Y3278632D01*
X5374386Y3291586D01*
X5380228Y3292601D01*
X5385308Y3292856D01*
X5391454Y3292398D01*
X5396890Y3290976D01*
X5401564Y3288639D01*
X5405475Y3285439D01*
X5408625Y3281375D01*
X5410860Y3276447D01*
X5412282Y3270707D01*
X5412740Y3264153D01*
X5412181Y3257143D01*
X5410504Y3250946D01*
X5407761Y3245662D01*
X5404002Y3241243D01*
X5399328Y3237738D01*
X5393791Y3235198D01*
X5387390Y3233674D01*
X5380228Y3233166D01*
X5371592Y3233166D01*
X5371592Y3223260D01*
X5382260Y3223260D01*
X5390286Y3222650D01*
X5397296Y3220872D01*
X5403240Y3217976D01*
X5408117Y3214065D01*
X5411876Y3209188D01*
X5414619Y3203448D01*
X5416245Y3196844D01*
X5416804Y3189478D01*
X5416245Y3182264D01*
X5414568Y3175660D01*
X5411825Y3169818D01*
X5408015Y3164789D01*
X5403240Y3160725D01*
X5397500Y3157728D01*
X5390845Y3155848D01*
X5383276Y3155188D01*
X5376976Y3155594D01*
X5370322Y3156966D01*
X5366766Y3170174D01*
X5364632Y3176727D01*
X5362194Y3181248D01*
X5358993Y3183839D01*
X5354574Y3184652D01*
X5351170Y3184245D01*
X5348274Y3183026D01*
X5345734Y3180791D01*
X5343652Y3177540D01*
X5345734Y3170072D01*
X5348935Y3163722D01*
X5353100Y3158439D01*
X5358231Y3154172D01*
X5364175Y3150920D01*
X5370880Y3148584D01*
X5378297Y3147263D01*
X5386324Y3146806D01*
X5393537Y3147161D01*
X5400344Y3148228D01*
X5406644Y3149955D01*
X5412435Y3152343D01*
X5417667Y3155238D01*
X5422341Y3158744D01*
X5426405Y3162757D01*
X5429808Y3167176D01*
X5432501Y3172104D01*
X5434482Y3177387D01*
X5435701Y3183026D01*
X5436108Y3188970D01*
X5435854Y3193897D01*
X5435142Y3198520D01*
X5433974Y3202940D01*
X5432298Y3207054D01*
X5430113Y3210915D01*
X5427421Y3214471D01*
X5424170Y3217672D01*
X5420461Y3220567D01*
X5416194Y3223056D01*
X5411368Y3225241D01*
X5405983Y3226968D01*
X5400040Y3228340D01*
X5407202Y3230981D01*
X5413552Y3234283D01*
X5418937Y3238195D01*
X5423408Y3242665D01*
X5426913Y3247644D01*
X5429453Y3253079D01*
X5431028Y3258972D01*
X5431536Y3265170D01*
X5431180Y3270453D01*
X5430215Y3275431D01*
X5428589Y3280054D01*
X5426354Y3284270D01*
X5423560Y3288131D01*
X5420156Y3291535D01*
X5416245Y3294481D01*
X5411825Y3296920D01*
X5406898Y3298901D01*
X5401513Y3300323D01*
X5395620Y3301187D01*
G37*
G36*
X5405882Y3059430D02*
G01*
X5341696Y2967736D01*
X5351272Y2967736D01*
X5400548Y3038602D01*
X5400548Y2967736D01*
X5341696Y2967736D01*
X5340096Y2965450D01*
X5340096Y2954528D01*
X5400548Y2954528D01*
X5400548Y2908300D01*
X5418328Y2908300D01*
X5418328Y2954528D01*
X5441950Y2954528D01*
X5441950Y2967736D01*
X5418328Y2967736D01*
X5418328Y3059430D01*
G37*
G36*
X5371846Y2803144D02*
G01*
X5367274Y2733802D01*
X5372862Y2732024D01*
X5378246Y2733344D01*
X5383631Y2734310D01*
X5388965Y2734868D01*
X5394198Y2735072D01*
X5399379Y2734818D01*
X5404205Y2734005D01*
X5408676Y2732633D01*
X5412790Y2730804D01*
X5416448Y2728417D01*
X5419750Y2725521D01*
X5422544Y2722168D01*
X5424881Y2718358D01*
X5426760Y2714091D01*
X5428132Y2709316D01*
X5428945Y2704134D01*
X5429250Y2698496D01*
X5428996Y2692806D01*
X5428284Y2687523D01*
X5427065Y2682595D01*
X5425338Y2678125D01*
X5423154Y2674010D01*
X5420563Y2670454D01*
X5417464Y2667304D01*
X5413959Y2664714D01*
X5409946Y2662631D01*
X5405577Y2661107D01*
X5400700Y2660192D01*
X5395468Y2659888D01*
X5391912Y2660040D01*
X5384952Y2661056D01*
X5381498Y2661920D01*
X5375656Y2682189D01*
X5373268Y2686456D01*
X5370068Y2688691D01*
X5365750Y2689352D01*
X5362346Y2688894D01*
X5359400Y2687624D01*
X5357012Y2685389D01*
X5355336Y2682240D01*
X5357418Y2675077D01*
X5360466Y2668879D01*
X5364378Y2663596D01*
X5369204Y2659278D01*
X5374843Y2655874D01*
X5381345Y2653436D01*
X5388660Y2652014D01*
X5396738Y2651506D01*
X5402529Y2651709D01*
X5408015Y2652420D01*
X5413248Y2653487D01*
X5418175Y2655011D01*
X5422747Y2656941D01*
X5427065Y2659227D01*
X5430977Y2661920D01*
X5434584Y2664917D01*
X5437784Y2668320D01*
X5440629Y2672029D01*
X5443067Y2676042D01*
X5445099Y2680309D01*
X5446725Y2684932D01*
X5447842Y2689809D01*
X5448554Y2694889D01*
X5448808Y2700274D01*
X5448401Y2707436D01*
X5447182Y2714040D01*
X5445252Y2720136D01*
X5442610Y2725623D01*
X5439257Y2730500D01*
X5435295Y2734767D01*
X5430723Y2738475D01*
X5425541Y2741472D01*
X5419852Y2743911D01*
X5413705Y2745587D01*
X5407101Y2746654D01*
X5400040Y2747010D01*
X5394096Y2746806D01*
X5388508Y2746197D01*
X5383022Y2745181D01*
X5377688Y2743708D01*
X5380482Y2785872D01*
X5444744Y2785872D01*
X5444744Y2803144D01*
G37*
G36*
X5441442Y2552192D02*
G01*
X5434685Y2551226D01*
X5428183Y2549956D01*
X5421934Y2548331D01*
X5415940Y2546451D01*
X5410250Y2544267D01*
X5404764Y2541778D01*
X5399582Y2539034D01*
X5394706Y2535986D01*
X5390032Y2532735D01*
X5385714Y2529230D01*
X5381650Y2525522D01*
X5377840Y2521610D01*
X5374335Y2517444D01*
X5371134Y2513076D01*
X5368239Y2508554D01*
X5365597Y2503881D01*
X5363260Y2499004D01*
X5361228Y2493975D01*
X5359552Y2488793D01*
X5358130Y2483510D01*
X5357012Y2478125D01*
X5356250Y2472588D01*
X5355664Y2464054D01*
X5375148Y2464054D01*
X5375148Y2468626D01*
X5381904Y2473604D01*
X5389118Y2476906D01*
X5396484Y2478735D01*
X5403850Y2479294D01*
X5409488Y2478786D01*
X5414619Y2477160D01*
X5419140Y2474468D01*
X5422950Y2470607D01*
X5426049Y2465628D01*
X5428335Y2459482D01*
X5429758Y2452116D01*
X5430266Y2443480D01*
X5429758Y2434640D01*
X5428386Y2427020D01*
X5426100Y2420518D01*
X5423052Y2415235D01*
X5419242Y2411171D01*
X5414822Y2408224D01*
X5409844Y2406446D01*
X5404358Y2405888D01*
X5399938Y2406294D01*
X5395823Y2407513D01*
X5392064Y2409545D01*
X5388660Y2412390D01*
X5385612Y2416048D01*
X5382920Y2420518D01*
X5380583Y2425750D01*
X5378653Y2431796D01*
X5377129Y2438654D01*
X5376062Y2446324D01*
X5375351Y2454808D01*
X5375148Y2464054D01*
X5355664Y2464054D01*
X5355793Y2453944D01*
X5356453Y2446985D01*
X5357520Y2440482D01*
X5358942Y2434386D01*
X5360822Y2428697D01*
X5363006Y2423464D01*
X5365597Y2418638D01*
X5368594Y2414320D01*
X5371896Y2410460D01*
X5375503Y2407107D01*
X5379466Y2404211D01*
X5383784Y2401824D01*
X5388356Y2399944D01*
X5393232Y2398623D01*
X5398414Y2397760D01*
X5403850Y2397506D01*
X5410352Y2397861D01*
X5416499Y2398979D01*
X5422188Y2400757D01*
X5427472Y2403297D01*
X5432298Y2406446D01*
X5436565Y2410307D01*
X5440324Y2414778D01*
X5443474Y2419908D01*
X5445963Y2425700D01*
X5447792Y2432050D01*
X5448909Y2439009D01*
X5449316Y2446528D01*
X5448960Y2453182D01*
X5447995Y2459380D01*
X5446420Y2465070D01*
X5444185Y2470302D01*
X5441442Y2475026D01*
X5438190Y2479192D01*
X5434380Y2482748D01*
X5430113Y2485745D01*
X5425440Y2488082D01*
X5420309Y2489809D01*
X5414772Y2490876D01*
X5408930Y2491232D01*
X5404408Y2490978D01*
X5399887Y2490266D01*
X5395518Y2489149D01*
X5391251Y2487523D01*
X5387086Y2485440D01*
X5383123Y2483002D01*
X5379262Y2480056D01*
X5375656Y2476754D01*
X5376621Y2483408D01*
X5377942Y2489758D01*
X5379720Y2495804D01*
X5381853Y2501544D01*
X5384393Y2506980D01*
X5387390Y2512110D01*
X5390845Y2516936D01*
X5394706Y2521458D01*
X5399024Y2525674D01*
X5403799Y2529535D01*
X5409082Y2533142D01*
X5414822Y2536393D01*
X5421020Y2539339D01*
X5427726Y2541981D01*
X5434990Y2544318D01*
X5442712Y2546350D01*
G37*
D11*
X3981958Y2348992D02*
G01*
X3981958Y2182876D01*
X3898900Y2265934D02*
G01*
X4065270Y2265934D01*
D10*
X4597402Y3467107D02*
G01*
X4597402Y2527307D01*
X4343402Y2273307D01*
X5118102Y2946407D02*
G01*
X4597402Y2425707D01*
X4597402Y2273307D01*
X3216785Y2500409D02*
G01*
X3770403Y2500409D01*
X3975102Y2705107D01*
X3149602Y1638307D02*
G01*
X3216785Y1705490D01*
X3216785Y2500409D01*
X3137740Y2500409D02*
G01*
X3216785Y2500409D01*
X3058670Y2500409D02*
G01*
X3137740Y2500409D01*
X3137740Y2700408D02*
G01*
X3216785Y2700408D01*
X3058670Y2700408D02*
G01*
X3137740Y2700408D01*
X3137740Y2700408D02*
G01*
X3137740Y2500409D01*
X3605405Y3589027D02*
G01*
X3605405Y3089028D01*
X3216785Y2700408D01*
X3975102Y2705107D02*
G01*
X4419602Y2705107D01*
X4495802Y2781307D01*
X2044702Y1638307D02*
G01*
X2151585Y1531424D01*
X3042719Y1531424D01*
X3149602Y1638307D01*
X965202Y3213107D02*
G01*
X965202Y3415774D01*
X1359613Y3810185D01*
X1725170Y3810185D01*
X1953084Y4038099D01*
X4406394Y4038099D01*
X4597402Y4229107D01*
X4065399Y3589027D02*
G01*
X4065399Y3450902D01*
X4495802Y3035307D02*
G01*
X4080207Y3450902D01*
X4065399Y3450902D01*
X1488467Y3700432D02*
G01*
X2127354Y3700432D01*
X2424127Y3997205D01*
X4350184Y3997205D01*
X5040124Y3307265D01*
X5165092Y3307265D01*
X5237584Y3234773D01*
X5237584Y2811889D01*
X5118102Y2692407D01*
X5118102Y3200407D02*
G01*
X5060292Y3200407D01*
X4490951Y3769748D01*
X3486127Y3769748D01*
X3216785Y3500407D01*
X3058670Y3500407D02*
G01*
X3216785Y3500407D01*
X2895602Y1638307D02*
G01*
X2895602Y1745165D01*
X3058670Y3100407D02*
G01*
X2900530Y3100407D01*
X2900530Y3100407D02*
G01*
X2900530Y1750093D01*
X2895602Y1745165D01*
X1790702Y1638307D02*
G01*
X1329794Y2099216D01*
X1329794Y2781129D01*
X1337236Y2788572D01*
X1921385Y2788572D01*
X2833245Y3700432D01*
X3058670Y3700432D01*
X1536702Y1638307D02*
G01*
X1536702Y1745165D01*
X1536702Y1745165D02*
G01*
X1286690Y1995177D01*
X1286690Y2939143D01*
X1336118Y2988571D01*
X1921385Y2988571D01*
X2833245Y3900431D01*
X3058670Y3900431D01*
X1646582Y3900431D02*
G01*
X1666521Y3900431D01*
X1488467Y3900431D02*
G01*
X1646582Y3900431D01*
X1488467Y3500407D02*
G01*
X1646582Y3500407D01*
X1712241Y3480417D02*
G01*
X1666572Y3480417D01*
X1646582Y3500407D01*
X3835402Y3589027D02*
G01*
X3835402Y3727152D01*
X1646074Y2500409D02*
G01*
X1758825Y2500409D01*
X2646987Y3388570D01*
X3180057Y3388570D01*
X3518639Y3727152D01*
X3835402Y3727152D01*
X2298702Y1638307D02*
G01*
X1646074Y2290935D01*
X1646074Y2500409D01*
X3835402Y3589027D02*
G01*
X3835402Y3073407D01*
X3467102Y2705107D01*
X1487959Y2500409D02*
G01*
X1646074Y2500409D01*
X1646582Y3300407D02*
G01*
X1687095Y3259894D01*
X2105764Y3259894D01*
X1488467Y3300407D02*
G01*
X1646582Y3300407D01*
D13*
G01*
X3058668Y2500401D03*
G01*
X3058668Y2700401D03*
G01*
X3058668Y2900400D03*
G01*
X3058668Y3100400D03*
G01*
X3058668Y3300399D03*
G01*
X3058668Y3500399D03*
G01*
X3058668Y3700424D03*
G01*
X3058668Y3900423D03*
G01*
X1488465Y3900423D03*
G01*
X1488465Y3700424D03*
G01*
X1488465Y3500399D03*
G01*
X1488465Y3300399D03*
G01*
X1488465Y3100400D03*
G01*
X1488465Y2900400D03*
G01*
X1488465Y2700401D03*
G01*
X1487957Y2500401D03*
G36*
X3660399Y4318779D02*
G01*
X4010400Y4318779D01*
X4010400Y4098780D01*
X3660399Y4098780D01*
G37*
G36*
X4010400Y3699019D02*
G01*
X4120400Y3699019D01*
X4120400Y3479020D01*
X4010400Y3479020D01*
G37*
G36*
X3780398Y3699019D02*
G01*
X3890401Y3699019D01*
X3890401Y3479020D01*
X3780398Y3479020D01*
G37*
G36*
X3550399Y3699019D02*
G01*
X3660399Y3699019D01*
X3660399Y3479020D01*
X3550399Y3479020D01*
G37*
D16*
G01*
X4343400Y2273300D03*
G01*
X4597400Y2273300D03*
D17*
G01*
X5118100Y2438400D03*
G01*
X5118100Y2692400D03*
G01*
X5118100Y2946400D03*
G01*
X5118100Y3200400D03*
G01*
X5118100Y3454400D03*
D18*
G01*
X5118100Y3708400D03*
D19*
G01*
X4597400Y4229100D03*
G01*
X4597400Y3467100D03*
D16*
G01*
X4495800Y2781300D03*
G01*
X4495800Y3035300D03*
D20*
G01*
X3467100Y2705100D03*
G01*
X3975100Y2705100D03*
G36*
X2810601Y1717039D02*
G01*
X2980601Y1717039D01*
X2980601Y1559560D01*
X2810601Y1559560D01*
G37*
D22*
G01*
X3149600Y1638300D03*
G36*
X3686901Y1717039D02*
G01*
X3856901Y1717039D01*
X3856901Y1559560D01*
X3686901Y1559560D01*
G37*
G01*
X4025900Y1638300D03*
D23*
G01*
X965200Y3213100D03*
D22*
G01*
X965200Y2959100D03*
G36*
X1457960Y1717039D02*
G01*
X1615439Y1717039D01*
X1615439Y1559560D01*
X1457960Y1559560D01*
G37*
D17*
G01*
X1790700Y1638300D03*
G01*
X2044700Y1638300D03*
G01*
X2298700Y1638300D03*
D12*
G01*
X1666519Y3900423D03*
G01*
X1712239Y3480409D03*
G01*
X2105761Y3259886D03*
M02*
