M48
METRIC,LZ,000.000
;FILE_FORMAT=3:3
;TYPE=PLATED
;Layer: Drill PTH
;EasyEDA v6.4.21, 2021-08-31T18:03:31+03:00
;b95053f86dca452894c47d8f443744e6,e35e2ce9ff7a437f96666ecb9555ba6e,10
;Gerber Generator version 0.2
;Holesize 1 = 0.306 mm
T01C0.306
;Holesize 2 = 0.712 mm
T02C0.712
;Holesize 3 = 0.889 mm
T03C0.889
;Holesize 4 = 0.900 mm
T04C0.900
;Holesize 5 = 1.101 mm
T05C1.101
%
G05
G90
T01
X016665Y039004
X017122Y034804
X021058Y032599
T02
X043434Y022733
X045974Y022733
X044958Y027813
X044958Y030353
X034671Y027051
X039751Y027051
T03
X051181Y024384
X051181Y026924
X051181Y029464
X051181Y032004
X051181Y034544
X051181Y037084
X015367Y016383
X017907Y016383
X020447Y016383
X022987Y016383
T04
X045974Y042291
X045974Y034671
T05
X028956Y016383
X031496Y016383
X037719Y016383
X040259Y016383
X009652Y032131
X009652Y029591
M30
