G04 Layer: TopSolderMaskLayer*
G04 EasyEDA v6.4.22, 2021-09-03T00:44:02+03:00*
G04 f01e111bf81b4bed8990e141baadd79c,e35e2ce9ff7a437f96666ecb9555ba6e,10*
G04 Gerber Generator version 0.2*
G04 Scale: 100 percent, Rotated: No, Reflected: No *
G04 Dimensions in millimeters *
G04 leading zeros omitted , absolute positions ,4 integer and 5 decimal *
%FSLAX45Y45*%
%MOMM*%

%ADD30C,1.6764*%
%ADD31C,1.2954*%
%ADD34C,1.8796*%
%ADD36C,1.8016*%

%LPD*%
G36*
X2923540Y2435352D02*
G01*
X2923540Y2565400D01*
X3193795Y2565400D01*
X3193795Y2435352D01*
G37*
G36*
X2923540Y2635250D02*
G01*
X2923540Y2765552D01*
X3193795Y2765552D01*
X3193795Y2635250D01*
G37*
G36*
X2923540Y2835402D02*
G01*
X2923540Y2965450D01*
X3193795Y2965450D01*
X3193795Y2835402D01*
G37*
G36*
X2923540Y3035300D02*
G01*
X2923540Y3165602D01*
X3193795Y3165602D01*
X3193795Y3035300D01*
G37*
G36*
X2923540Y3235452D02*
G01*
X2923540Y3365500D01*
X3193795Y3365500D01*
X3193795Y3235452D01*
G37*
G36*
X2923540Y3435350D02*
G01*
X2923540Y3565397D01*
X3193795Y3565397D01*
X3193795Y3435350D01*
G37*
G36*
X2923540Y3635247D02*
G01*
X2923540Y3765550D01*
X3193795Y3765550D01*
X3193795Y3635247D01*
G37*
G36*
X2923540Y3835400D02*
G01*
X2923540Y3965447D01*
X3193795Y3965447D01*
X3193795Y3835400D01*
G37*
G36*
X1353312Y3835400D02*
G01*
X1353312Y3965447D01*
X1623568Y3965447D01*
X1623568Y3835400D01*
G37*
G36*
X1353312Y3635247D02*
G01*
X1353312Y3765550D01*
X1623568Y3765550D01*
X1623568Y3635247D01*
G37*
G36*
X1353312Y3435350D02*
G01*
X1353312Y3565397D01*
X1623568Y3565397D01*
X1623568Y3435350D01*
G37*
G36*
X1353312Y3235452D02*
G01*
X1353312Y3365500D01*
X1623568Y3365500D01*
X1623568Y3235452D01*
G37*
G36*
X1353312Y3035300D02*
G01*
X1353312Y3165602D01*
X1623568Y3165602D01*
X1623568Y3035300D01*
G37*
G36*
X1353312Y2835402D02*
G01*
X1353312Y2965450D01*
X1623568Y2965450D01*
X1623568Y2835402D01*
G37*
G36*
X1353312Y2635250D02*
G01*
X1353312Y2765552D01*
X1623568Y2765552D01*
X1623568Y2635250D01*
G37*
G36*
X1352804Y2435352D02*
G01*
X1352804Y2565400D01*
X1623060Y2565400D01*
X1623060Y2435352D01*
G37*
G36*
X4958079Y3446779D02*
G01*
X4958079Y3614420D01*
X5125720Y3614420D01*
X5125720Y3446779D01*
G37*
D30*
G01*
X5041900Y3276600D03*
G01*
X5041900Y3022600D03*
G01*
X5041900Y2768600D03*
D31*
G01*
X4495800Y2933700D03*
G01*
X4495800Y3187700D03*
G36*
X3650234Y4088637D02*
G01*
X3650234Y4328921D01*
X4020565Y4328921D01*
X4020565Y4088637D01*
G37*
G36*
X4000245Y3468878D02*
G01*
X4000245Y3709162D01*
X4130547Y3709162D01*
X4130547Y3468878D01*
G37*
G36*
X3770122Y3468878D02*
G01*
X3770122Y3709162D01*
X3900677Y3709162D01*
X3900677Y3468878D01*
G37*
G36*
X3540252Y3468878D02*
G01*
X3540252Y3709162D01*
X3670554Y3709162D01*
X3670554Y3468878D01*
G37*
D34*
G01*
X3467100Y2705100D03*
G01*
X3975100Y2705100D03*
G36*
X2805429Y1554479D02*
G01*
X2805429Y1722120D01*
X2985770Y1722120D01*
X2985770Y1554479D01*
G37*
D36*
G01*
X3149600Y1638300D03*
G36*
X3681729Y1554479D02*
G01*
X3681729Y1722120D01*
X3862070Y1722120D01*
X3862070Y1554479D01*
G37*
G01*
X4025900Y1638300D03*
G36*
X881379Y3122929D02*
G01*
X881379Y3303270D01*
X1049020Y3303270D01*
X1049020Y3122929D01*
G37*
G01*
X965200Y2959100D03*
G36*
X1452879Y1554479D02*
G01*
X1452879Y1722120D01*
X1620520Y1722120D01*
X1620520Y1554479D01*
G37*
D30*
G01*
X1790700Y1638300D03*
G01*
X2044700Y1638300D03*
G01*
X2298700Y1638300D03*
M02*
