M48
METRIC,LZ,000.000
;FILE_FORMAT=3:3
;TYPE=PLATED
;Layer: Drill PTH
;EasyEDA v6.4.22, 2021-09-03T00:44:02+03:00
;f01e111bf81b4bed8990e141baadd79c,e35e2ce9ff7a437f96666ecb9555ba6e,10
;Gerber Generator version 0.2
;Holesize 1 = 0.306 mm
T01C0.306
;Holesize 2 = 0.712 mm
T02C0.712
;Holesize 3 = 0.889 mm
T03C0.889
;Holesize 4 = 1.101 mm
T04C1.101
%
G05
G90
T01
X023264Y030332
X017693Y038259
X017408Y035443
X020946Y033004
X034498Y029944
T02
X044958Y029337
X044958Y031877
X034671Y027051
X039751Y027051
T03
X050419Y035306
X050419Y032766
X050419Y030226
X050419Y027686
X015367Y016383
X017907Y016383
X020447Y016383
X022987Y016383
T04
X028956Y016383
X031496Y016383
X037719Y016383
X040259Y016383
X009652Y032131
X009652Y029591
M30
